<svg xmlns="http://www.w3.org/2000/svg" xmlns:xlink="http://www.w3.org/1999/xlink" width="2478pt" height="666pt" viewBox="0.00 0.00 2478.50 665.60">
<g id="graph0" class="graph" transform="scale(1 1) rotate(0) translate(4 661.6)">
<title>%0</title>
<polygon fill="#ffffff" stroke="transparent" points="-4,4 -4,-661.6 2474.496,-661.6 2474.496,4 -4,4"/>
<!-- N19 -->
<g id="node1" class="node">
<title>N19</title>
<ellipse fill="#c0c0c0" stroke="#c0c0c0" cx="934.4694" cy="-550.8" rx="18" ry="18"/>
</g>
<!-- N20 -->
<g id="node6" class="node">
<title>N20</title>
<g id="a_node6"><a xlink:href="https://wiedzmin.fandom.com/wiki/Coën" xlink:title="&lt;https://wiedzmin.fandom.com/wiki/Coën&gt;">
<ellipse fill="none" stroke="#000000" cx="184.4694" cy="-462" rx="184.4389" ry="18"/>
<text text-anchor="middle" x="184.4694" y="-457.8" font-family="Times,serif" font-size="14.00" fill="#000000">&lt;https://wiedzmin.fandom.com/wiki/Coën&gt;</text>
</a>
</g>
</g>
<!-- N19&#45;&gt;N20 -->
<g id="edge7" class="edge">
<title>N19-&gt;N20</title>
<g id="a_edge7"><a xlink:href="http://www.w3.org/1999/02/22-rdf-syntax-ns#_5" xlink:title="rdf:_5">
<path fill="none" stroke="#000000" d="M916.3016,-548.6489C834.8613,-539.0064 499.2385,-499.2687 312.0747,-477.1085"/>
<polygon fill="#000000" stroke="#000000" points="312.2394,-473.6036 301.8972,-475.9034 311.4163,-480.555 312.2394,-473.6036"/>
</a>
</g>
<g id="a_edge7-label"><a xlink:href="http://www.w3.org/1999/02/22-rdf-syntax-ns#_5" xlink:title="rdf:_5">
<text text-anchor="middle" x="644.5753" y="-502.2" font-family="Times,serif" font-size="14.00" fill="#000000">rdf:_5</text>
</a>
</g>
</g>
<!-- N6 -->
<g id="node7" class="node">
<title>N6</title>
<g id="a_node7"><a xlink:href="https://wiedzmin.fandom.com/wiki/Geralt" xlink:title="&lt;https://wiedzmin.fandom.com/wiki/Geralt&gt;">
<ellipse fill="none" stroke="#000000" cx="1859.4694" cy="-462" rx="184.4118" ry="18"/>
<text text-anchor="middle" x="1859.4694" y="-457.8" font-family="Times,serif" font-size="14.00" fill="#000000">&lt;https://wiedzmin.fandom.com/wiki/Geralt&gt;</text>
</a>
</g>
</g>
<!-- N19&#45;&gt;N6 -->
<g id="edge3" class="edge">
<title>N19-&gt;N6</title>
<g id="a_edge3"><a xlink:href="http://www.w3.org/1999/02/22-rdf-syntax-ns#_1" xlink:title="rdf:_1">
<path fill="none" stroke="#000000" d="M952.5319,-549.066C1046.8413,-540.0123 1487.1673,-497.741 1717.7751,-475.6027"/>
<polygon fill="#000000" stroke="#000000" points="1718.2992,-479.0685 1727.919,-474.6288 1717.6302,-472.1006 1718.2992,-479.0685"/>
</a>
</g>
<g id="a_edge3-label"><a xlink:href="http://www.w3.org/1999/02/22-rdf-syntax-ns#_1" xlink:title="rdf:_1">
<text text-anchor="middle" x="1496.5753" y="-502.2" font-family="Times,serif" font-size="14.00" fill="#000000">rdf:_1</text>
</a>
</g>
</g>
<!-- N23 -->
<g id="node12" class="node">
<title>N23</title>
<g id="a_node12"><a xlink:href="https://wiedzmin.fandom.com/wiki/Eskel" xlink:title="&lt;https://wiedzmin.fandom.com/wiki/Eskel&gt;">
<ellipse fill="none" stroke="#000000" cx="568.4694" cy="-462" rx="181.566" ry="18"/>
<text text-anchor="middle" x="568.4694" y="-457.8" font-family="Times,serif" font-size="14.00" fill="#000000">&lt;https://wiedzmin.fandom.com/wiki/Eskel&gt;</text>
</a>
</g>
</g>
<!-- N19&#45;&gt;N23 -->
<g id="edge6" class="edge">
<title>N19-&gt;N23</title>
<g id="a_edge6"><a xlink:href="http://www.w3.org/1999/02/22-rdf-syntax-ns#_4" xlink:title="rdf:_4">
<path fill="none" stroke="#000000" d="M916.8165,-546.517C868.9687,-534.908 734.5448,-502.2937 647.3613,-481.141"/>
<polygon fill="#000000" stroke="#000000" points="648.0427,-477.7048 637.4994,-478.7482 646.3922,-484.5075 648.0427,-477.7048"/>
</a>
</g>
<g id="a_edge6-label"><a xlink:href="http://www.w3.org/1999/02/22-rdf-syntax-ns#_4" xlink:title="rdf:_4">
<text text-anchor="middle" x="801.5753" y="-502.2" font-family="Times,serif" font-size="14.00" fill="#000000">rdf:_4</text>
</a>
</g>
</g>
<!-- N26 -->
<g id="node18" class="node">
<title>N26</title>
<g id="a_node18"><a xlink:href="http://www.w3.org/1999/02/22-rdf-syntax-ns#Bag" xlink:title="rdf:Bag">
<ellipse fill="none" stroke="#000000" cx="808.4694" cy="-462" rx="40.5673" ry="18"/>
<text text-anchor="middle" x="808.4694" y="-457.8" font-family="Times,serif" font-size="14.00" fill="#000000">rdf:Bag</text>
</a>
</g>
</g>
<!-- N19&#45;&gt;N26 -->
<g id="edge2" class="edge">
<title>N19-&gt;N26</title>
<g id="a_edge2"><a xlink:href="http://www.w3.org/1999/02/22-rdf-syntax-ns#type" xlink:title="a">
<path fill="none" stroke="#000000" d="M919.5208,-540.2648C899.608,-526.231 863.9267,-501.0842 838.3806,-483.0802"/>
<polygon fill="#000000" stroke="#000000" points="840.3333,-480.1746 830.1431,-477.2747 836.3008,-485.8964 840.3333,-480.1746"/>
</a>
</g>
<g id="a_edge2-label"><a xlink:href="http://www.w3.org/1999/02/22-rdf-syntax-ns#type" xlink:title="a">
<text text-anchor="middle" x="886.5767" y="-502.2" font-family="Times,serif" font-size="14.00" fill="#000000">a</text>
</a>
</g>
</g>
<!-- N25 -->
<g id="node21" class="node">
<title>N25</title>
<g id="a_node21"><a xlink:href="https://wiedzmin.fandom.com/wiki/Vesemir" xlink:title="&lt;https://wiedzmin.fandom.com/wiki/Vesemir&gt;">
<ellipse fill="none" stroke="#000000" cx="1060.4694" cy="-462" rx="193.08" ry="18"/>
<text text-anchor="middle" x="1060.4694" y="-457.8" font-family="Times,serif" font-size="14.00" fill="#000000">&lt;https://wiedzmin.fandom.com/wiki/Vesemir&gt;</text>
</a>
</g>
</g>
<!-- N19&#45;&gt;N25 -->
<g id="edge4" class="edge">
<title>N19-&gt;N25</title>
<g id="a_edge4"><a xlink:href="http://www.w3.org/1999/02/22-rdf-syntax-ns#_2" xlink:title="rdf:_2">
<path fill="none" stroke="#000000" d="M949.4181,-540.2648C968.3938,-526.8914 1001.6888,-503.4263 1026.8872,-485.6675"/>
<polygon fill="#000000" stroke="#000000" points="1028.9322,-488.5082 1035.0899,-479.8865 1024.8996,-482.7864 1028.9322,-488.5082"/>
</a>
</g>
<g id="a_edge4-label"><a xlink:href="http://www.w3.org/1999/02/22-rdf-syntax-ns#_2" xlink:title="rdf:_2">
<text text-anchor="middle" x="1026.5753" y="-502.2" font-family="Times,serif" font-size="14.00" fill="#000000">rdf:_2</text>
</a>
</g>
</g>
<!-- N24 -->
<g id="node22" class="node">
<title>N24</title>
<g id="a_node22"><a xlink:href="https://wiedzmin.fandom.com/wiki/Lambert" xlink:title="&lt;https://wiedzmin.fandom.com/wiki/Lambert&gt;">
<ellipse fill="none" stroke="#000000" cx="1464.4694" cy="-462" rx="193.0819" ry="18"/>
<text text-anchor="middle" x="1464.4694" y="-457.8" font-family="Times,serif" font-size="14.00" fill="#000000">&lt;https://wiedzmin.fandom.com/wiki/Lambert&gt;</text>
</a>
</g>
</g>
<!-- N19&#45;&gt;N24 -->
<g id="edge5" class="edge">
<title>N19-&gt;N24</title>
<g id="a_edge5"><a xlink:href="http://www.w3.org/1999/02/22-rdf-syntax-ns#_3" xlink:title="rdf:_3">
<path fill="none" stroke="#000000" d="M952.4072,-547.7946C1015.4097,-537.2387 1229.7993,-501.3183 1360.3578,-479.4436"/>
<polygon fill="#000000" stroke="#000000" points="1361.1028,-482.8677 1370.3869,-477.7633 1359.946,-475.9639 1361.1028,-482.8677"/>
</a>
</g>
<g id="a_edge5-label"><a xlink:href="http://www.w3.org/1999/02/22-rdf-syntax-ns#_3" xlink:title="rdf:_3">
<text text-anchor="middle" x="1263.5753" y="-502.2" font-family="Times,serif" font-size="14.00" fill="#000000">rdf:_3</text>
</a>
</g>
</g>
<!-- N13 -->
<g id="node2" class="node">
<title>N13</title>
<g id="a_node2"><a xlink:href="https://wiedzmin.fandom.com/wiki/Dziki_Gon" xlink:title="&lt;https://wiedzmin.fandom.com/wiki/Dziki_Gon&gt;">
<ellipse fill="none" stroke="#000000" cx="1660.4694" cy="-195.6" rx="203.4796" ry="18"/>
<text text-anchor="middle" x="1660.4694" y="-191.4" font-family="Times,serif" font-size="14.00" fill="#000000">&lt;https://wiedzmin.fandom.com/wiki/Dziki_Gon&gt;</text>
</a>
</g>
</g>
<!-- N7 -->
<g id="node9" class="node">
<title>N7</title>
<g id="a_node9"><a xlink:href="https://wiedzmin.fandom.com/wiki/Ciri" xlink:title="&lt;https://wiedzmin.fandom.com/wiki/Ciri&gt;">
<ellipse fill="none" stroke="#000000" cx="1981.4694" cy="-284.4" rx="175.2028" ry="18"/>
<text text-anchor="middle" x="1981.4694" y="-280.2" font-family="Times,serif" font-size="14.00" fill="#000000">&lt;https://wiedzmin.fandom.com/wiki/Ciri&gt;</text>
</a>
</g>
</g>
<!-- N13&#45;&gt;N7 -->
<g id="edge1" class="edge">
<title>N13-&gt;N7</title>
<g id="a_edge1"><a xlink:href="https://example.org/relationsściga" xlink:title="rel:ściga">
<path fill="none" stroke="#000000" d="M1722.4684,-212.7511C1776.2683,-227.6341 1854.1437,-249.1772 1910.4393,-264.7505"/>
<polygon fill="#000000" stroke="#000000" points="1909.765,-268.1954 1920.3362,-267.4884 1911.6314,-261.4488 1909.765,-268.1954"/>
</a>
</g>
<g id="a_edge1-label"><a xlink:href="https://example.org/relationsściga" xlink:title="rel:ściga">
<text text-anchor="middle" x="1874.5378" y="-235.8" font-family="Times,serif" font-size="14.00" fill="#000000">rel:ściga</text>
</a>
</g>
</g>
<!-- N1 -->
<g id="node3" class="node">
<title>N1</title>
<g id="a_node3"><a xlink:href="http://www.w3.org/1999/02/22-rdf-syntax-ns#nil" xlink:title="rdf:nil">
<ellipse fill="none" stroke="#000000" cx="2406.4694" cy="-106.8" rx="35.3489" ry="18"/>
<text text-anchor="middle" x="2406.4694" y="-102.6" font-family="Times,serif" font-size="14.00" fill="#000000">rdf:nil</text>
</a>
</g>
</g>
<!-- N10 -->
<g id="node4" class="node">
<title>N10</title>
<g id="a_node4"><a xlink:href="http://www.w3.org/1999/02/22-rdf-syntax-ns#nil">
<ellipse fill="#c0c0c0" stroke="#c0c0c0" cx="2281.4694" cy="-462" rx="18" ry="18"/>
</a>
</g>
</g>
<!-- N11 -->
<g id="node14" class="node">
<title>N11</title>
<g id="a_node14"><a xlink:href="https://wiedzmin.fandom.com/wiki/Nilfgard">
<ellipse fill="#c0c0c0" stroke="#c0c0c0" cx="2307.4694" cy="-373.2" rx="18" ry="18"/>
</a>
</g>
</g>
<!-- N10&#45;&gt;N11 -->
<g id="edge27" class="edge">
<title>N10-&gt;N11</title>
<g id="a_edge27"><a xlink:href="http://www.w3.org/1999/02/22-rdf-syntax-ns#rest" xlink:title="rdf:rest">
<path fill="none" stroke="#000000" d="M2286.9101,-444.4427C2288.7051,-438.5848 2290.6954,-432.0178 2292.4694,-426 2294.8945,-417.7735 2297.4684,-408.8054 2299.7868,-400.6339"/>
<polygon fill="#000000" stroke="#000000" points="2303.2072,-401.3999 2302.5562,-390.8251 2296.4706,-399.4978 2303.2072,-401.3999"/>
</a>
</g>
<g id="a_edge27-label"><a xlink:href="http://www.w3.org/1999/02/22-rdf-syntax-ns#rest" xlink:title="rdf:rest">
<text text-anchor="middle" x="2316.6805" y="-413.4" font-family="Times,serif" font-size="14.00" fill="#000000">rdf:rest</text>
</a>
</g>
</g>
<!-- N12 -->
<g id="node20" class="node">
<title>N12</title>
<g id="a_node20"><a xlink:href="http://www.w3.org/1999/02/22-rdf-syntax-ns#Bag" xlink:title="z Rivii">
<polygon fill="#ffff00" stroke="#ffff00" points="2264.4694,-391.2 2210.4694,-391.2 2210.4694,-355.2 2264.4694,-355.2 2264.4694,-391.2"/>
<text text-anchor="middle" x="2237.4694" y="-369" font-family="Times,serif" font-size="14.00" fill="#000000">z Rivii</text>
</a>
</g>
</g>
<!-- N10&#45;&gt;N12 -->
<g id="edge26" class="edge">
<title>N10-&gt;N12</title>
<g id="a_edge26"><a xlink:href="http://www.w3.org/1999/02/22-rdf-syntax-ns#first" xlink:title="rdf:first">
<path fill="none" stroke="#000000" d="M2266.6859,-450.9306C2259.1863,-444.4977 2250.6425,-435.7468 2245.7106,-426 2241.9407,-418.5496 2239.803,-409.8119 2238.6157,-401.6128"/>
<polygon fill="#000000" stroke="#000000" points="2242.0951,-401.2322 2237.5688,-391.6529 2235.1334,-401.964 2242.0951,-401.2322"/>
</a>
</g>
<g id="a_edge26-label"><a xlink:href="http://www.w3.org/1999/02/22-rdf-syntax-ns#first" xlink:title="rdf:first">
<text text-anchor="middle" x="2266.8488" y="-413.4" font-family="Times,serif" font-size="14.00" fill="#000000">rdf:first</text>
</a>
</g>
</g>
<!-- N14 -->
<g id="node5" class="node">
<title>N14</title>
<g id="a_node5"><a xlink:href="https://wiedzmin.fandom.com/wiki/Emhyr_var_Emreis" xlink:title="&lt;https://wiedzmin.fandom.com/wiki/Emhyr_var_Emreis&gt;">
<ellipse fill="none" stroke="#000000" cx="2117.4694" cy="-195.6" rx="235.9032" ry="18"/>
<text text-anchor="middle" x="2117.4694" y="-191.4" font-family="Times,serif" font-size="14.00" fill="#000000">&lt;https://wiedzmin.fandom.com/wiki/Emhyr_var_Emreis&gt;</text>
</a>
</g>
</g>
<!-- N14&#45;&gt;N7 -->
<g id="edge12" class="edge">
<title>N14-&gt;N7</title>
<g id="a_edge12"><a xlink:href="https://example.org/relationsojciec" xlink:title="rel:ojciec">
<path fill="none" stroke="#000000" d="M2023.2378,-212.1192C2004.3867,-217.3319 1988.482,-223.8104 1982.388,-231.6 1977.0466,-238.4277 1975.5256,-247.4148 1975.7315,-256.0347"/>
<polygon fill="#000000" stroke="#000000" points="1972.2669,-256.5737 1976.6985,-266.1972 1979.2354,-255.9106 1972.2669,-256.5737"/>
</a>
</g>
<g id="a_edge12-label"><a xlink:href="https://example.org/relationsojciec" xlink:title="rel:ojciec">
<text text-anchor="middle" x="2007.5101" y="-235.8" font-family="Times,serif" font-size="14.00" fill="#000000">rel:ojciec</text>
</a>
</g>
</g>
<!-- N8 -->
<g id="node13" class="node">
<title>N8</title>
<g id="a_node13"><a xlink:href="https://wiedzmin.fandom.com/wiki/Nilfgard" xlink:title="&lt;https://wiedzmin.fandom.com/wiki/Nilfgard&gt;">
<ellipse fill="none" stroke="#000000" cx="2088.4694" cy="-106.8" rx="193.0819" ry="18"/>
<text text-anchor="middle" x="2088.4694" y="-102.6" font-family="Times,serif" font-size="14.00" fill="#000000">&lt;https://wiedzmin.fandom.com/wiki/Nilfgard&gt;</text>
</a>
</g>
</g>
<!-- N14&#45;&gt;N8 -->
<g id="edge14" class="edge">
<title>N14-&gt;N8</title>
<g id="a_edge14"><a xlink:href="https://example.org/relationsrządzi" xlink:title="rel:rządzi">
<path fill="none" stroke="#000000" d="M2111.4606,-177.2006C2107.4289,-164.8552 2102.0449,-148.3689 2097.5006,-134.4539"/>
<polygon fill="#000000" stroke="#000000" points="2100.8029,-133.2914 2094.3713,-124.872 2094.1487,-135.4645 2100.8029,-133.2914"/>
</a>
</g>
<g id="a_edge14-label"><a xlink:href="https://example.org/relationsrządzi" xlink:title="rel:rządzi">
<text text-anchor="middle" x="2132.8681" y="-147" font-family="Times,serif" font-size="14.00" fill="#000000">rel:rządzi</text>
</a>
</g>
</g>
<!-- N2 -->
<g id="node17" class="node">
<title>N2</title>
<g id="a_node17"><a xlink:href="https://wiedzmin.fandom.com/wiki/Tytuły" xlink:title="Cesarz">
<polygon fill="#ffff00" stroke="#ffff00" points="2353.5551,-124.8 2299.3838,-124.8 2299.3838,-88.8 2353.5551,-88.8 2353.5551,-124.8"/>
<text text-anchor="middle" x="2326.4694" y="-102.6" font-family="Times,serif" font-size="14.00" fill="#000000">Cesarz</text>
</a>
</g>
</g>
<!-- N14&#45;&gt;N2 -->
<g id="edge13" class="edge">
<title>N14-&gt;N2</title>
<g id="a_edge13"><a xlink:href="https://example.org/relationstytuł" xlink:title="rel:tytuł">
<path fill="none" stroke="#000000" d="M2163.3998,-177.8929C2196.3713,-164.9357 2241.9835,-146.5108 2289.7872,-124.9753"/>
<polygon fill="#000000" stroke="#000000" points="2291.3922,-128.0906 2299.0544,-120.7733 2288.5015,-121.7153 2291.3922,-128.0906"/>
</a>
</g>
<g id="a_edge13-label"><a xlink:href="https://example.org/relationstytuł" xlink:title="rel:tytuł">
<text text-anchor="middle" x="2271.7685" y="-147" font-family="Times,serif" font-size="14.00" fill="#000000">rel:tytuł</text>
</a>
</g>
</g>
<!-- N21 -->
<g id="node25" class="node">
<title>N21</title>
<g id="a_node25"><a xlink:href="https://wiedzmin.fandom.com/wiki/Lambert" xlink:title="false">
<polygon fill="#ffff00" stroke="#ffff00" points="211.4694,-391.2 157.4694,-391.2 157.4694,-355.2 211.4694,-355.2 211.4694,-391.2"/>
<text text-anchor="middle" x="184.4694" y="-369" font-family="Times,serif" font-size="14.00" fill="#000000">false</text>
</a>
</g>
</g>
<!-- N20&#45;&gt;N21 -->
<g id="edge10" class="edge">
<title>N20-&gt;N21</title>
<g id="a_edge10"><a xlink:href="https://example.org/relationsżyje" xlink:title="rel:żyje">
<path fill="none" stroke="#000000" d="M184.4694,-443.6006C184.4694,-431.4949 184.4694,-415.4076 184.4694,-401.6674"/>
<polygon fill="#000000" stroke="#000000" points="187.9695,-401.272 184.4694,-391.272 180.9695,-401.2721 187.9695,-401.272"/>
</a>
</g>
<g id="a_edge10-label"><a xlink:href="https://example.org/relationsżyje" xlink:title="rel:żyje">
<text text-anchor="middle" x="211.6805" y="-413.4" font-family="Times,serif" font-size="14.00" fill="#000000">rel:żyje</text>
</a>
</g>
</g>
<!-- N3 -->
<g id="node8" class="node">
<title>N3</title>
<g id="a_node8"><a xlink:href="https://wiedzmin.fandom.com/wiki/Jaskier" xlink:title="&lt;https://wiedzmin.fandom.com/wiki/Jaskier&gt;">
<ellipse fill="none" stroke="#000000" cx="1920.4694" cy="-373.2" rx="187.2812" ry="18"/>
<text text-anchor="middle" x="1920.4694" y="-369" font-family="Times,serif" font-size="14.00" fill="#000000">&lt;https://wiedzmin.fandom.com/wiki/Jaskier&gt;</text>
</a>
</g>
</g>
<!-- N6&#45;&gt;N3 -->
<g id="edge16" class="edge">
<title>N6-&gt;N3</title>
<g id="a_edge16"><a xlink:href="https://example.org/relationszna" xlink:title="rel:zna">
<path fill="none" stroke="#000000" d="M1882.2162,-444.0509C1888.0382,-438.6888 1893.9292,-432.4949 1898.4694,-426 1903.7856,-418.395 1908.1519,-409.3077 1911.5535,-400.8331"/>
<polygon fill="#000000" stroke="#000000" points="1914.8966,-401.8846 1915.1026,-391.2917 1908.3358,-399.4441 1914.8966,-401.8846"/>
</a>
</g>
<g id="a_edge16-label"><a xlink:href="https://example.org/relationszna" xlink:title="rel:zna">
<text text-anchor="middle" x="1926.5122" y="-413.4" font-family="Times,serif" font-size="14.00" fill="#000000">rel:zna</text>
</a>
</g>
</g>
<!-- N6&#45;&gt;N7 -->
<g id="edge15" class="edge">
<title>N6-&gt;N7</title>
<g id="a_edge15"><a xlink:href="https://example.org/relationszna" xlink:title="rel:zna">
<path fill="none" stroke="#000000" d="M1953.3758,-446.4305C2017.0424,-434.0114 2093.6161,-414.8101 2116.4694,-391.2 2138.7203,-368.2123 2149.2384,-345.554 2129.4694,-320.4 2123.5755,-312.9006 2109.2506,-306.769 2091.7144,-301.83"/>
<polygon fill="#000000" stroke="#000000" points="2092.2348,-298.3485 2081.6749,-299.2076 2090.4657,-305.1213 2092.2348,-298.3485"/>
</a>
</g>
<g id="a_edge15-label"><a xlink:href="https://example.org/relationszna" xlink:title="rel:zna">
<text text-anchor="middle" x="2157.5122" y="-369" font-family="Times,serif" font-size="14.00" fill="#000000">rel:zna</text>
</a>
</g>
</g>
<!-- N16 -->
<g id="node11" class="node">
<title>N16</title>
<g id="a_node11"><a xlink:href="https://wiedzmin.fandom.com/wiki/Ciri" xlink:title="112">
<polygon fill="#ffff00" stroke="#ffff00" points="1221.4694,-391.2 1167.4694,-391.2 1167.4694,-355.2 1221.4694,-355.2 1221.4694,-391.2"/>
<text text-anchor="middle" x="1194.4694" y="-369" font-family="Times,serif" font-size="14.00" fill="#000000">112</text>
</a>
</g>
</g>
<!-- N6&#45;&gt;N16 -->
<g id="edge19" class="edge">
<title>N6-&gt;N16</title>
<g id="a_edge19"><a xlink:href="https://example.org/relationswiek" xlink:title="rel:wiek">
<path fill="none" stroke="#000000" d="M1725.6855,-449.546C1563.7666,-434.0898 1304.6203,-407.9969 1231.6585,-390.6587"/>
<polygon fill="#000000" stroke="#000000" points="1232.1562,-387.1684 1221.5905,-387.9542 1230.3401,-393.9287 1232.1562,-387.1684"/>
</a>
</g>
<g id="a_edge19-label"><a xlink:href="https://example.org/relationswiek" xlink:title="rel:wiek">
<text text-anchor="middle" x="1503.4035" y="-413.4" font-family="Times,serif" font-size="14.00" fill="#000000">rel:wiek</text>
</a>
</g>
</g>
<!-- N6&#45;&gt;N12 -->
<g id="edge18" class="edge">
<title>N6-&gt;N12</title>
<g id="a_edge18"><a xlink:href="https://example.org/relationstytuł" xlink:title="rel:tytuł">
<path fill="none" stroke="#000000" d="M2001.982,-450.5708C2062.8137,-444.4662 2126.2368,-436.1143 2154.4694,-426 2164.6248,-422.3619 2184.9689,-409.4569 2202.9732,-397.3169"/>
<polygon fill="#000000" stroke="#000000" points="2205.2739,-399.9846 2211.5688,-391.4626 2201.3334,-394.199 2205.2739,-399.9846"/>
</a>
</g>
<g id="a_edge18-label"><a xlink:href="https://example.org/relationstytuł" xlink:title="rel:tytuł">
<text text-anchor="middle" x="2207.7685" y="-413.4" font-family="Times,serif" font-size="14.00" fill="#000000">rel:tytuł</text>
</a>
</g>
</g>
<!-- N17 -->
<g id="node26" class="node">
<title>N17</title>
<g id="a_node26"><a xlink:href="https://wiedzmin.fandom.com/wiki/Wiedzmin" xlink:title="&lt;https://wiedzmin.fandom.com/wiki/Wiedzmin&gt;">
<ellipse fill="none" stroke="#000000" cx="1440.4694" cy="-373.2" rx="200.6081" ry="18"/>
<text text-anchor="middle" x="1440.4694" y="-369" font-family="Times,serif" font-size="14.00" fill="#000000">&lt;https://wiedzmin.fandom.com/wiki/Wiedzmin&gt;</text>
</a>
</g>
</g>
<!-- N6&#45;&gt;N17 -->
<g id="edge17" class="edge">
<title>N6-&gt;N17</title>
<g id="a_edge17"><a xlink:href="https://example.org/relationsjest" xlink:title="rel:jest">
<path fill="none" stroke="#000000" d="M1747.3072,-447.6728C1708.4932,-441.9431 1664.8393,-434.6338 1625.3726,-426 1584.6814,-417.0983 1539.7325,-404.3315 1504.3419,-393.5817"/>
<polygon fill="#000000" stroke="#000000" points="1505.2114,-390.1876 1494.6249,-390.6081 1503.163,-396.8812 1505.2114,-390.1876"/>
</a>
</g>
<g id="a_edge17-label"><a xlink:href="https://example.org/relationsjest" xlink:title="rel:jest">
<text text-anchor="middle" x="1643.5178" y="-413.4" font-family="Times,serif" font-size="14.00" fill="#000000">rel:jest</text>
</a>
</g>
</g>
<!-- N3&#45;&gt;N6 -->
<g id="edge30" class="edge">
<title>N3-&gt;N6</title>
<g id="a_edge30"><a xlink:href="https://example.org/relationszna" xlink:title="rel:zna">
<path fill="none" stroke="#000000" d="M1874.6381,-390.8121C1867.3431,-395.6599 1860.7669,-401.7106 1856.3838,-409.2 1852.1445,-416.4439 1851.3259,-425.2462 1852.0257,-433.5706"/>
<polygon fill="#000000" stroke="#000000" points="1848.6046,-434.3525 1853.581,-443.7059 1855.5237,-433.2907 1848.6046,-434.3525"/>
</a>
</g>
<g id="a_edge30-label"><a xlink:href="https://example.org/relationszna" xlink:title="rel:zna">
<text text-anchor="middle" x="1874.5122" y="-413.4" font-family="Times,serif" font-size="14.00" fill="#000000">rel:zna</text>
</a>
</g>
</g>
<!-- N3&#45;&gt;N7 -->
<g id="edge29" class="edge">
<title>N3-&gt;N7</title>
<g id="a_edge29"><a xlink:href="https://example.org/relationszna" xlink:title="rel:zna">
<path fill="none" stroke="#000000" d="M1914.581,-354.9059C1912.2445,-344.1572 1911.3546,-330.7024 1917.3838,-320.4 1920.094,-315.769 1923.6427,-311.6882 1927.6814,-308.1016"/>
<polygon fill="#000000" stroke="#000000" points="1930.1237,-310.6412 1935.9604,-301.799 1925.8836,-305.0714 1930.1237,-310.6412"/>
</a>
</g>
<g id="a_edge29-label"><a xlink:href="https://example.org/relationszna" xlink:title="rel:zna">
<text text-anchor="middle" x="1935.5122" y="-324.6" font-family="Times,serif" font-size="14.00" fill="#000000">rel:zna</text>
</a>
</g>
</g>
<!-- N4 -->
<g id="node23" class="node">
<title>N4</title>
<g id="a_node23"><a xlink:href="https://wiedzmin.fandom.com/wiki/Lambert" xlink:title="Bard">
<polygon fill="#ffff00" stroke="#ffff00" points="1788.4694,-302.4 1734.4694,-302.4 1734.4694,-266.4 1788.4694,-266.4 1788.4694,-302.4"/>
<text text-anchor="middle" x="1761.4694" y="-280.2" font-family="Times,serif" font-size="14.00" fill="#000000">Bard</text>
</a>
</g>
</g>
<!-- N3&#45;&gt;N4 -->
<g id="edge32" class="edge">
<title>N3-&gt;N4</title>
<g id="a_edge32"><a xlink:href="https://example.org/relationszawód" xlink:title="rel:zawód">
<path fill="none" stroke="#000000" d="M1883.6207,-355.4471C1872.2933,-349.8006 1859.8532,-343.4058 1848.6166,-337.2 1831.5296,-327.7631 1812.9818,-316.6518 1797.407,-307.0628"/>
<polygon fill="#000000" stroke="#000000" points="1798.9584,-303.9067 1788.6139,-301.617 1795.2727,-309.8579 1798.9584,-303.9067"/>
</a>
</g>
<g id="a_edge32-label"><a xlink:href="https://example.org/relationszawód" xlink:title="rel:zawód">
<text text-anchor="middle" x="1878.3958" y="-324.6" font-family="Times,serif" font-size="14.00" fill="#000000">rel:zawód</text>
</a>
</g>
</g>
<!-- N5 -->
<g id="node27" class="node">
<title>N5</title>
<g id="a_node27"><a xlink:href="https://wiedzmin.fandom.com/wiki/Wiedzmin" xlink:title="Mistrz">
<polygon fill="#ffff00" stroke="#ffff00" points="2248.4694,-302.4 2194.4694,-302.4 2194.4694,-266.4 2248.4694,-266.4 2248.4694,-302.4"/>
<text text-anchor="middle" x="2221.4694" y="-280.2" font-family="Times,serif" font-size="14.00" fill="#000000">Mistrz</text>
</a>
</g>
</g>
<!-- N3&#45;&gt;N5 -->
<g id="edge31" class="edge">
<title>N3-&gt;N5</title>
<g id="a_edge31"><a xlink:href="https://example.org/relationstytuł" xlink:title="rel:tytuł">
<path fill="none" stroke="#000000" d="M1981.2799,-356.1691C2030.9454,-342.1293 2102.9008,-321.4916 2165.4694,-302.4 2171.6871,-300.5028 2178.2751,-298.4362 2184.6649,-296.4017"/>
<polygon fill="#000000" stroke="#000000" points="2186.0076,-299.6467 2194.461,-293.26 2183.8699,-292.9811 2186.0076,-299.6467"/>
</a>
</g>
<g id="a_edge31-label"><a xlink:href="https://example.org/relationstytuł" xlink:title="rel:tytuł">
<text text-anchor="middle" x="2128.7685" y="-324.6" font-family="Times,serif" font-size="14.00" fill="#000000">rel:tytuł</text>
</a>
</g>
</g>
<!-- N7&#45;&gt;N13 -->
<g id="edge25" class="edge">
<title>N7-&gt;N13</title>
<g id="a_edge25"><a xlink:href="https://example.org/relationsucieka" xlink:title="rel:ucieka">
<path fill="none" stroke="#000000" d="M1855.1357,-271.8494C1805.4588,-265.7284 1754.9306,-257.678 1732.2786,-248.4 1716.0684,-241.7605 1700.1529,-230.6684 1687.4412,-220.3599"/>
<polygon fill="#000000" stroke="#000000" points="1689.4871,-217.5074 1679.5795,-213.7536 1684.9837,-222.8665 1689.4871,-217.5074"/>
</a>
</g>
<g id="a_edge25-label"><a xlink:href="https://example.org/relationsucieka" xlink:title="rel:ucieka">
<text text-anchor="middle" x="1759.0648" y="-235.8" font-family="Times,serif" font-size="14.00" fill="#000000">rel:ucieka</text>
</a>
</g>
</g>
<!-- N7&#45;&gt;N14 -->
<g id="edge23" class="edge">
<title>N7-&gt;N14</title>
<g id="a_edge23"><a xlink:href="https://example.org/relationszna" xlink:title="rel:zna">
<path fill="none" stroke="#000000" d="M2008.2889,-266.4566C2016.7126,-260.7477 2026.0181,-254.3655 2034.4694,-248.4 2044.7863,-241.1177 2046.8641,-238.586 2057.3838,-231.6 2063.7216,-227.3912 2070.5502,-223.0895 2077.2512,-218.9916"/>
<polygon fill="#000000" stroke="#000000" points="2079.4998,-221.7225 2086.2518,-213.5578 2075.882,-215.7299 2079.4998,-221.7225"/>
</a>
</g>
<g id="a_edge23-label"><a xlink:href="https://example.org/relationszna" xlink:title="rel:zna">
<text text-anchor="middle" x="2075.5122" y="-235.8" font-family="Times,serif" font-size="14.00" fill="#000000">rel:zna</text>
</a>
</g>
</g>
<!-- N7&#45;&gt;N14 -->
<g id="edge24" class="edge">
<title>N7-&gt;N14</title>
<g id="a_edge24"><a xlink:href="https://example.org/relationscórka" xlink:title="rel:córka">
<path fill="none" stroke="#000000" d="M2062.8759,-268.4329C2074.7657,-263.4628 2086.128,-256.9457 2095.4694,-248.4 2102.6563,-241.8253 2107.5655,-232.5376 2110.8875,-223.5811"/>
<polygon fill="#000000" stroke="#000000" points="2114.3116,-224.3621 2114.0003,-213.7718 2107.6395,-222.2447 2114.3116,-224.3621"/>
</a>
</g>
<g id="a_edge24-label"><a xlink:href="https://example.org/relationscórka" xlink:title="rel:córka">
<text text-anchor="middle" x="2133.6728" y="-235.8" font-family="Times,serif" font-size="14.00" fill="#000000">rel:córka</text>
</a>
</g>
</g>
<!-- N7&#45;&gt;N6 -->
<g id="edge21" class="edge">
<title>N7-&gt;N6</title>
<g id="a_edge21"><a xlink:href="https://example.org/relationszna" xlink:title="rel:zna">
<path fill="none" stroke="#000000" d="M1862.4995,-297.6798C1790.3918,-308.4902 1708.2111,-326.709 1686.3838,-355.2 1654.8548,-396.3546 1716.4282,-425.4332 1774.6796,-442.7503"/>
<polygon fill="#000000" stroke="#000000" points="1773.7828,-446.1342 1784.3606,-445.5331 1775.7167,-439.4066 1773.7828,-446.1342"/>
</a>
</g>
<g id="a_edge21-label"><a xlink:href="https://example.org/relationszna" xlink:title="rel:zna">
<text text-anchor="middle" x="1704.5122" y="-369" font-family="Times,serif" font-size="14.00" fill="#000000">rel:zna</text>
</a>
</g>
</g>
<!-- N7&#45;&gt;N3 -->
<g id="edge22" class="edge">
<title>N7-&gt;N3</title>
<g id="a_edge22"><a xlink:href="https://example.org/relationszna" xlink:title="rel:zna">
<path fill="none" stroke="#000000" d="M1976.1026,-302.4917C1972.4235,-313.1688 1966.8659,-326.6192 1959.4694,-337.2 1956.8446,-340.9549 1953.7683,-344.6091 1950.5149,-348.0602"/>
<polygon fill="#000000" stroke="#000000" points="1947.8835,-345.7394 1943.2162,-355.2509 1952.7962,-350.7259 1947.8835,-345.7394"/>
</a>
</g>
<g id="a_edge22-label"><a xlink:href="https://example.org/relationszna" xlink:title="rel:zna">
<text text-anchor="middle" x="1987.5122" y="-324.6" font-family="Times,serif" font-size="14.00" fill="#000000">rel:zna</text>
</a>
</g>
</g>
<!-- N22 -->
<g id="node10" class="node">
<title>N22</title>
<g id="a_node10"><a xlink:href="https://wiedzmin.fandom.com/wiki/Ciri">
<ellipse fill="#c0c0c0" stroke="#c0c0c0" cx="2307.4694" cy="-284.4" rx="18" ry="18"/>
</a>
</g>
</g>
<!-- N9 -->
<g id="node19" class="node">
<title>N9</title>
<g id="a_node19"><a xlink:href="http://www.w3.org/1999/02/22-rdf-syntax-ns#Bag" xlink:title="01.01.1135^^xsd:date">
<polygon fill="#ffff00" stroke="#ffff00" points="2157.7538,-36 2019.1851,-36 2019.1851,0 2157.7538,0 2157.7538,-36"/>
<text text-anchor="middle" x="2088.4694" y="-13.8" font-family="Times,serif" font-size="14.00" fill="#000000">01.01.1135^^xsd:date</text>
</a>
</g>
</g>
<!-- N8&#45;&gt;N9 -->
<g id="edge28" class="edge">
<title>N8-&gt;N9</title>
<g id="a_edge28"><a xlink:href="https://example.org/relationspowstał" xlink:title="rel:powstał">
<path fill="none" stroke="#000000" d="M2088.4694,-88.4006C2088.4694,-76.2949 2088.4694,-60.2076 2088.4694,-46.4674"/>
<polygon fill="#000000" stroke="#000000" points="2091.9695,-46.072 2088.4694,-36.072 2084.9695,-46.0721 2091.9695,-46.072"/>
</a>
</g>
<g id="a_edge28-label"><a xlink:href="https://example.org/relationspowstał" xlink:title="rel:powstał">
<text text-anchor="middle" x="2121.7061" y="-58.2" font-family="Times,serif" font-size="14.00" fill="#000000">rel:powstał</text>
</a>
</g>
</g>
<!-- N11&#45;&gt;N22 -->
<g id="edge9" class="edge">
<title>N11-&gt;N22</title>
<g id="a_edge9"><a xlink:href="http://www.w3.org/1999/02/22-rdf-syntax-ns#rest" xlink:title="rdf:rest">
<path fill="none" stroke="#000000" d="M2307.4694,-354.8006C2307.4694,-342.6949 2307.4694,-326.6076 2307.4694,-312.8674"/>
<polygon fill="#000000" stroke="#000000" points="2310.9695,-312.472 2307.4694,-302.472 2303.9695,-312.4721 2310.9695,-312.472"/>
</a>
</g>
<g id="a_edge9-label"><a xlink:href="http://www.w3.org/1999/02/22-rdf-syntax-ns#rest" xlink:title="rdf:rest">
<text text-anchor="middle" x="2327.6805" y="-324.6" font-family="Times,serif" font-size="14.00" fill="#000000">rdf:rest</text>
</a>
</g>
</g>
<!-- N11&#45;&gt;N5 -->
<g id="edge8" class="edge">
<title>N11-&gt;N5</title>
<g id="a_edge8"><a xlink:href="http://www.w3.org/1999/02/22-rdf-syntax-ns#first" xlink:title="rdf:first">
<path fill="none" stroke="#000000" d="M2292.2903,-363.1347C2282.6955,-356.3942 2270.3353,-346.9895 2260.7106,-337.2 2252.9038,-329.2594 2245.3515,-319.7085 2238.9922,-310.9256"/>
<polygon fill="#000000" stroke="#000000" points="2241.6771,-308.6586 2233.0654,-302.4869 2235.9487,-312.6819 2241.6771,-308.6586"/>
</a>
</g>
<g id="a_edge8-label"><a xlink:href="http://www.w3.org/1999/02/22-rdf-syntax-ns#first" xlink:title="rdf:first">
<text text-anchor="middle" x="2281.8488" y="-324.6" font-family="Times,serif" font-size="14.00" fill="#000000">rdf:first</text>
</a>
</g>
</g>
<!-- N18 -->
<g id="node15" class="node">
<title>N18</title>
<g id="a_node15"><a xlink:href="https://wiedzmin.fandom.com/wiki/Kaer_Morhen" xlink:title="&lt;https://wiedzmin.fandom.com/wiki/Kaer_Morhen&gt;">
<ellipse fill="none" stroke="#000000" cx="934.4694" cy="-639.6" rx="214.4761" ry="18"/>
<text text-anchor="middle" x="934.4694" y="-635.4" font-family="Times,serif" font-size="14.00" fill="#000000">&lt;https://wiedzmin.fandom.com/wiki/Kaer_Morhen&gt;</text>
</a>
</g>
</g>
<!-- N18&#45;&gt;N19 -->
<g id="edge11" class="edge">
<title>N18-&gt;N19</title>
<g id="a_edge11"><a xlink:href="https://example.org/relationszamieszkują" xlink:title="rel:zamieszkują">
<path fill="none" stroke="#000000" d="M934.4694,-621.2006C934.4694,-609.0949 934.4694,-593.0076 934.4694,-579.2674"/>
<polygon fill="#000000" stroke="#000000" points="937.9695,-578.872 934.4694,-568.872 930.9695,-578.8721 937.9695,-578.872"/>
</a>
</g>
<g id="a_edge11-label"><a xlink:href="https://example.org/relationszamieszkują" xlink:title="rel:zamieszkują">
<text text-anchor="middle" x="979.3653" y="-591" font-family="Times,serif" font-size="14.00" fill="#000000">rel:zamieszkują</text>
</a>
</g>
</g>
<!-- N15 -->
<g id="node16" class="node">
<title>N15</title>
<g id="a_node16"><a xlink:href="https://wiedzmin.fandom.com/wiki/Tytuły" xlink:title="&lt;https://wiedzmin.fandom.com/wiki/Tytuły&gt;">
<ellipse fill="none" stroke="#000000" cx="2281.4694" cy="-550.8" rx="189.0531" ry="18"/>
<text text-anchor="middle" x="2281.4694" y="-546.6" font-family="Times,serif" font-size="14.00" fill="#000000">&lt;https://wiedzmin.fandom.com/wiki/Tytuły&gt;</text>
</a>
</g>
</g>
<!-- N15&#45;&gt;N10 -->
<g id="edge20" class="edge">
<title>N15-&gt;N10</title>
<g id="a_edge20"><a xlink:href="https://example.org/relationssą" xlink:title="rel:są">
<path fill="none" stroke="#000000" d="M2281.4694,-532.4006C2281.4694,-520.2949 2281.4694,-504.2076 2281.4694,-490.4674"/>
<polygon fill="#000000" stroke="#000000" points="2284.9695,-490.072 2281.4694,-480.072 2277.9695,-490.0721 2284.9695,-490.072"/>
</a>
</g>
<g id="a_edge20-label"><a xlink:href="https://example.org/relationssą" xlink:title="rel:są">
<text text-anchor="middle" x="2297.6002" y="-502.2" font-family="Times,serif" font-size="14.00" fill="#000000">rel:są</text>
</a>
</g>
</g>
<!-- N0 -->
<g id="node24" class="node">
<title>N0</title>
<g id="a_node24"><a xlink:href="https://wiedzmin.fandom.com/wiki/Lambert">
<ellipse fill="#c0c0c0" stroke="#c0c0c0" cx="2400.4694" cy="-195.6" rx="18" ry="18"/>
</a>
</g>
</g>
<!-- N0&#45;&gt;N1 -->
<g id="edge34" class="edge">
<title>N0-&gt;N1</title>
<g id="a_edge34"><a xlink:href="http://www.w3.org/1999/02/22-rdf-syntax-ns#rest" xlink:title="rdf:rest">
<path fill="none" stroke="#000000" d="M2401.6836,-177.63C2402.5077,-165.4338 2403.6144,-149.0543 2404.556,-135.1187"/>
<polygon fill="#000000" stroke="#000000" points="2408.0543,-135.2613 2405.2365,-125.0481 2401.0702,-134.7893 2408.0543,-135.2613"/>
</a>
</g>
<g id="a_edge34-label"><a xlink:href="http://www.w3.org/1999/02/22-rdf-syntax-ns#rest" xlink:title="rdf:rest">
<text text-anchor="middle" x="2423.6805" y="-147" font-family="Times,serif" font-size="14.00" fill="#000000">rdf:rest</text>
</a>
</g>
</g>
<!-- N0&#45;&gt;N2 -->
<g id="edge33" class="edge">
<title>N0-&gt;N2</title>
<g id="a_edge33"><a xlink:href="http://www.w3.org/1999/02/22-rdf-syntax-ns#first" xlink:title="rdf:first">
<path fill="none" stroke="#000000" d="M2385.1046,-185.5322C2375.8217,-178.9278 2364.1866,-169.6713 2355.7106,-159.6 2349.2691,-151.9461 2343.5654,-142.6579 2338.9449,-134.0186"/>
<polygon fill="#000000" stroke="#000000" points="2342.0187,-132.3412 2334.3728,-125.007 2335.7761,-135.5085 2342.0187,-132.3412"/>
</a>
</g>
<g id="a_edge33-label"><a xlink:href="http://www.w3.org/1999/02/22-rdf-syntax-ns#first" xlink:title="rdf:first">
<text text-anchor="middle" x="2376.8488" y="-147" font-family="Times,serif" font-size="14.00" fill="#000000">rdf:first</text>
</a>
</g>
</g>
</g>
</svg>