<svg xmlns="http://www.w3.org/2000/svg" xmlns:xlink="http://www.w3.org/1999/xlink" width="2870pt" height="399pt" viewBox="0.00 0.00 2870.08 399.20">
<g id="graph0" class="graph" transform="scale(1 1) rotate(0) translate(4 395.2)">
<title>%0</title>
<polygon fill="#ffffff" stroke="transparent" points="-4,4 -4,-395.2 2866.0819,-395.2 2866.0819,4 -4,4"/>
<!-- N19 -->
<g id="node1" class="node">
<title>N19</title>
<g id="a_node1"><a xlink:href="https://wiedzmin.fandom.com/wiki/Dziki_Gon" xlink:title="&lt;https://wiedzmin.fandom.com/wiki/Dziki_Gon&gt;">
<ellipse fill="none" stroke="#000000" cx="566.0409" cy="-373.2" rx="203.4796" ry="18"/>
<text text-anchor="middle" x="566.0409" y="-369" font-family="Times,serif" font-size="14.00" fill="#000000">&lt;https://wiedzmin.fandom.com/wiki/Dziki_Gon&gt;</text>
</a>
</g>
</g>
<!-- N7 -->
<g id="node8" class="node">
<title>N7</title>
<g id="a_node8"><a xlink:href="https://wiedzmin.fandom.com/wiki/Ciri" xlink:title="&lt;https://wiedzmin.fandom.com/wiki/Ciri&gt;">
<ellipse fill="none" stroke="#000000" cx="566.0409" cy="-284.4" rx="175.2028" ry="18"/>
<text text-anchor="middle" x="566.0409" y="-280.2" font-family="Times,serif" font-size="14.00" fill="#000000">&lt;https://wiedzmin.fandom.com/wiki/Ciri&gt;</text>
</a>
</g>
</g>
<!-- N19&#45;&gt;N7 -->
<g id="edge1" class="edge">
<title>N19-&gt;N7</title>
<g id="a_edge1"><a xlink:href="https://example.org/relationsściga" xlink:title="rel:ściga">
<path fill="none" stroke="#000000" d="M576.498,-355.0765C579.1746,-349.5214 581.6798,-343.2699 583.0409,-337.2 584.6747,-329.9143 584.6747,-327.6857 583.0409,-320.4 582.4029,-317.5547 581.5135,-314.6696 580.4729,-311.8349"/>
<polygon fill="#000000" stroke="#000000" points="583.6431,-310.3464 576.498,-302.5235 577.2052,-313.0947 583.6431,-310.3464"/>
</a>
</g>
<g id="a_edge1-label"><a xlink:href="https://example.org/relationsściga" xlink:title="rel:ściga">
<text text-anchor="middle" x="610.1093" y="-324.6" font-family="Times,serif" font-size="14.00" fill="#000000">rel:ściga</text>
</a>
</g>
</g>
<!-- N1 -->
<g id="node2" class="node">
<title>N1</title>
<g id="a_node2"><a xlink:href="http://www.w3.org/1999/02/22-rdf-syntax-ns#nil" xlink:title="rdf:nil">
<ellipse fill="none" stroke="#000000" cx="511.0409" cy="-106.8" rx="35.3489" ry="18"/>
<text text-anchor="middle" x="511.0409" y="-102.6" font-family="Times,serif" font-size="14.00" fill="#000000">rdf:nil</text>
</a>
</g>
</g>
<!-- N10 -->
<g id="node3" class="node">
<title>N10</title>
<g id="a_node3"><a xlink:href="http://www.w3.org/1999/02/22-rdf-syntax-ns#nil">
<ellipse fill="#c0c0c0" stroke="#c0c0c0" cx="1146.0409" cy="-284.4" rx="18" ry="18"/>
</a>
</g>
</g>
<!-- N11 -->
<g id="node13" class="node">
<title>N11</title>
<g id="a_node13"><a xlink:href="https://wiedzmin.fandom.com/wiki/Nilfgard">
<ellipse fill="#c0c0c0" stroke="#c0c0c0" cx="1114.0409" cy="-195.6" rx="18" ry="18"/>
</a>
</g>
</g>
<!-- N10&#45;&gt;N11 -->
<g id="edge25" class="edge">
<title>N10-&gt;N11</title>
<g id="a_edge25"><a xlink:href="http://www.w3.org/1999/02/22-rdf-syntax-ns#rest" xlink:title="rdf:rest">
<path fill="none" stroke="#000000" d="M1134.7619,-270.0929C1130.317,-263.7727 1125.5765,-256.0501 1122.6187,-248.4 1119.6381,-240.6908 1117.6932,-231.9603 1116.4241,-223.8503"/>
<polygon fill="#000000" stroke="#000000" points="1119.8636,-223.1555 1115.1148,-213.6845 1112.921,-224.0497 1119.8636,-223.1555"/>
</a>
</g>
<g id="a_edge25-label"><a xlink:href="http://www.w3.org/1999/02/22-rdf-syntax-ns#rest" xlink:title="rdf:rest">
<text text-anchor="middle" x="1142.252" y="-235.8" font-family="Times,serif" font-size="14.00" fill="#000000">rdf:rest</text>
</a>
</g>
</g>
<!-- N12 -->
<g id="node19" class="node">
<title>N12</title>
<g id="a_node19"><a xlink:href="http://www.w3.org/1999/02/22-rdf-syntax-ns#Bag" xlink:title="z Rivii">
<polygon fill="#ffff00" stroke="#ffff00" points="1161.0409,-36 1107.0409,-36 1107.0409,0 1161.0409,0 1161.0409,-36"/>
<text text-anchor="middle" x="1134.0409" y="-13.8" font-family="Times,serif" font-size="14.00" fill="#000000">z Rivii</text>
</a>
</g>
</g>
<!-- N10&#45;&gt;N12 -->
<g id="edge24" class="edge">
<title>N10-&gt;N12</title>
<g id="a_edge24"><a xlink:href="http://www.w3.org/1999/02/22-rdf-syntax-ns#first" xlink:title="rdf:first">
<path fill="none" stroke="#000000" d="M1155.2401,-268.8151C1158.3675,-262.6707 1161.4681,-255.4141 1163.0409,-248.4 1164.6747,-241.1143 1163.3763,-239.0591 1163.0409,-231.6 1161.2614,-192.0135 1160.1102,-182.1009 1155.0409,-142.8 1150.7371,-109.4329 1144.0686,-71.332 1139.404,-46.0982"/>
<polygon fill="#000000" stroke="#000000" points="1142.8174,-45.3099 1137.5404,-36.1228 1135.9365,-46.5955 1142.8174,-45.3099"/>
</a>
</g>
<g id="a_edge24-label"><a xlink:href="http://www.w3.org/1999/02/22-rdf-syntax-ns#first" xlink:title="rdf:first">
<text text-anchor="middle" x="1178.4203" y="-147" font-family="Times,serif" font-size="14.00" fill="#000000">rdf:first</text>
</a>
</g>
</g>
<!-- N20 -->
<g id="node4" class="node">
<title>N20</title>
<g id="a_node4"><a xlink:href="https://wiedzmin.fandom.com/wiki/Emhyr_var_Emreis" xlink:title="&lt;https://wiedzmin.fandom.com/wiki/Emhyr_var_Emreis&gt;">
<ellipse fill="none" stroke="#000000" cx="240.0409" cy="-195.6" rx="235.9032" ry="18"/>
<text text-anchor="middle" x="240.0409" y="-191.4" font-family="Times,serif" font-size="14.00" fill="#000000">&lt;https://wiedzmin.fandom.com/wiki/Emhyr_var_Emreis&gt;</text>
</a>
</g>
</g>
<!-- N20&#45;&gt;N7 -->
<g id="edge5" class="edge">
<title>N20-&gt;N7</title>
<g id="a_edge5"><a xlink:href="https://example.org/relationsojciec" xlink:title="rel:ojciec">
<path fill="none" stroke="#000000" d="M348.4827,-211.6331C376.9133,-216.9185 407.3546,-223.5532 435.0409,-231.6 463.4155,-239.8468 494.1036,-252.0289 518.6401,-262.6143"/>
<polygon fill="#000000" stroke="#000000" points="517.5014,-265.9362 528.0663,-266.7323 520.3038,-259.5216 517.5014,-265.9362"/>
</a>
</g>
<g id="a_edge5-label"><a xlink:href="https://example.org/relationsojciec" xlink:title="rel:ojciec">
<text text-anchor="middle" x="509.0816" y="-235.8" font-family="Times,serif" font-size="14.00" fill="#000000">rel:ojciec</text>
</a>
</g>
</g>
<!-- N8 -->
<g id="node12" class="node">
<title>N8</title>
<g id="a_node12"><a xlink:href="https://wiedzmin.fandom.com/wiki/Nilfgard" xlink:title="&lt;https://wiedzmin.fandom.com/wiki/Nilfgard&gt;">
<ellipse fill="none" stroke="#000000" cx="193.0409" cy="-106.8" rx="193.0819" ry="18"/>
<text text-anchor="middle" x="193.0409" y="-102.6" font-family="Times,serif" font-size="14.00" fill="#000000">&lt;https://wiedzmin.fandom.com/wiki/Nilfgard&gt;</text>
</a>
</g>
</g>
<!-- N20&#45;&gt;N8 -->
<g id="edge7" class="edge">
<title>N20-&gt;N8</title>
<g id="a_edge7"><a xlink:href="https://example.org/relationsrządzi" xlink:title="rel:rządzi">
<path fill="none" stroke="#000000" d="M230.3025,-177.2006C223.7049,-164.7353 214.8729,-148.0484 207.4635,-134.0494"/>
<polygon fill="#000000" stroke="#000000" points="210.3775,-132.0731 202.6061,-124.872 204.1907,-135.3477 210.3775,-132.0731"/>
</a>
</g>
<g id="a_edge7-label"><a xlink:href="https://example.org/relationsrządzi" xlink:title="rel:rządzi">
<text text-anchor="middle" x="248.4396" y="-147" font-family="Times,serif" font-size="14.00" fill="#000000">rel:rządzi</text>
</a>
</g>
</g>
<!-- N2 -->
<g id="node16" class="node">
<title>N2</title>
<g id="a_node16"><a xlink:href="https://wiedzmin.fandom.com/wiki/Tytuły" xlink:title="Cesarz">
<polygon fill="#ffff00" stroke="#ffff00" points="458.1266,-124.8 403.9553,-124.8 403.9553,-88.8 458.1266,-88.8 458.1266,-124.8"/>
<text text-anchor="middle" x="431.0409" y="-102.6" font-family="Times,serif" font-size="14.00" fill="#000000">Cesarz</text>
</a>
</g>
</g>
<!-- N20&#45;&gt;N2 -->
<g id="edge6" class="edge">
<title>N20-&gt;N2</title>
<g id="a_edge6"><a xlink:href="https://example.org/relationstytuł" xlink:title="rel:tytuł">
<path fill="none" stroke="#000000" d="M280.041,-177.7942C309.4228,-164.6103 350.4934,-145.9652 394.7702,-124.8616"/>
<polygon fill="#000000" stroke="#000000" points="396.4521,-127.937 403.9643,-120.4659 393.4327,-121.6217 396.4521,-127.937"/>
</a>
</g>
<g id="a_edge6-label"><a xlink:href="https://example.org/relationstytuł" xlink:title="rel:tytuł">
<text text-anchor="middle" x="377.34" y="-147" font-family="Times,serif" font-size="14.00" fill="#000000">rel:tytuł</text>
</a>
</g>
</g>
<!-- N14 -->
<g id="node5" class="node">
<title>N14</title>
<g id="a_node5"><a xlink:href="https://wiedzmin.fandom.com/wiki/Coën" xlink:title="&lt;https://wiedzmin.fandom.com/wiki/Coën&gt;">
<ellipse fill="none" stroke="#000000" cx="1389.0409" cy="-106.8" rx="184.4389" ry="18"/>
<text text-anchor="middle" x="1389.0409" y="-102.6" font-family="Times,serif" font-size="14.00" fill="#000000">&lt;https://wiedzmin.fandom.com/wiki/Coën&gt;</text>
</a>
</g>
</g>
<!-- N6 -->
<g id="node6" class="node">
<title>N6</title>
<g id="a_node6"><a xlink:href="https://wiedzmin.fandom.com/wiki/Geralt" xlink:title="&lt;https://wiedzmin.fandom.com/wiki/Geralt&gt;">
<ellipse fill="none" stroke="#000000" cx="822.0409" cy="-106.8" rx="184.4118" ry="18"/>
<text text-anchor="middle" x="822.0409" y="-102.6" font-family="Times,serif" font-size="14.00" fill="#000000">&lt;https://wiedzmin.fandom.com/wiki/Geralt&gt;</text>
</a>
</g>
</g>
<!-- N3 -->
<g id="node7" class="node">
<title>N3</title>
<g id="a_node7"><a xlink:href="https://wiedzmin.fandom.com/wiki/Jaskier" xlink:title="&lt;https://wiedzmin.fandom.com/wiki/Jaskier&gt;">
<ellipse fill="none" stroke="#000000" cx="883.0409" cy="-195.6" rx="187.2812" ry="18"/>
<text text-anchor="middle" x="883.0409" y="-191.4" font-family="Times,serif" font-size="14.00" fill="#000000">&lt;https://wiedzmin.fandom.com/wiki/Jaskier&gt;</text>
</a>
</g>
</g>
<!-- N6&#45;&gt;N3 -->
<g id="edge9" class="edge">
<title>N6-&gt;N3</title>
<g id="a_edge9"><a xlink:href="https://example.org/relationszna" xlink:title="rel:zna">
<path fill="none" stroke="#000000" d="M844.7877,-124.7491C850.6097,-130.1112 856.5007,-136.3051 861.0409,-142.8 866.3571,-150.405 870.7234,-159.4923 874.125,-167.9669"/>
<polygon fill="#000000" stroke="#000000" points="870.9073,-169.3559 877.6741,-177.5083 877.4681,-166.9154 870.9073,-169.3559"/>
</a>
</g>
<g id="a_edge9-label"><a xlink:href="https://example.org/relationszna" xlink:title="rel:zna">
<text text-anchor="middle" x="890.0837" y="-147" font-family="Times,serif" font-size="14.00" fill="#000000">rel:zna</text>
</a>
</g>
</g>
<!-- N6&#45;&gt;N7 -->
<g id="edge8" class="edge">
<title>N6-&gt;N7</title>
<g id="a_edge8"><a xlink:href="https://example.org/relationszna" xlink:title="rel:zna">
<path fill="none" stroke="#000000" d="M727.5826,-122.3614C711.0342,-127.3902 694.5035,-134.0321 680.0409,-142.8 655.8055,-157.4927 609.4651,-221.2649 583.9646,-258.0195"/>
<polygon fill="#000000" stroke="#000000" points="581.0509,-256.0796 578.2556,-266.2991 586.8137,-260.0533 581.0509,-256.0796"/>
</a>
</g>
<g id="a_edge8-label"><a xlink:href="https://example.org/relationszna" xlink:title="rel:zna">
<text text-anchor="middle" x="663.0837" y="-191.4" font-family="Times,serif" font-size="14.00" fill="#000000">rel:zna</text>
</a>
</g>
</g>
<!-- N6&#45;&gt;N12 -->
<g id="edge11" class="edge">
<title>N6-&gt;N12</title>
<g id="a_edge11"><a xlink:href="https://example.org/relationstytuł" xlink:title="rel:tytuł">
<path fill="none" stroke="#000000" d="M882.1977,-89.6785C945.7456,-71.5918 1043.9373,-43.6449 1096.9874,-28.546"/>
<polygon fill="#000000" stroke="#000000" points="1098.0007,-31.8967 1106.6606,-25.7929 1096.0844,-25.1641 1098.0007,-31.8967"/>
</a>
</g>
<g id="a_edge11-label"><a xlink:href="https://example.org/relationstytuł" xlink:title="rel:tytuł">
<text text-anchor="middle" x="1029.34" y="-58.2" font-family="Times,serif" font-size="14.00" fill="#000000">rel:tytuł</text>
</a>
</g>
</g>
<!-- N22 -->
<g id="node24" class="node">
<title>N22</title>
<g id="a_node24"><a xlink:href="https://wiedzmin.fandom.com/wiki/Wiedzmin" xlink:title="&lt;https://wiedzmin.fandom.com/wiki/Wiedzmin&gt;">
<ellipse fill="none" stroke="#000000" cx="822.0409" cy="-18" rx="200.6081" ry="18"/>
<text text-anchor="middle" x="822.0409" y="-13.8" font-family="Times,serif" font-size="14.00" fill="#000000">&lt;https://wiedzmin.fandom.com/wiki/Wiedzmin&gt;</text>
</a>
</g>
</g>
<!-- N6&#45;&gt;N22 -->
<g id="edge10" class="edge">
<title>N6-&gt;N22</title>
<g id="a_edge10"><a xlink:href="https://example.org/relationsjest" xlink:title="rel:jest">
<path fill="none" stroke="#000000" d="M822.0409,-88.4006C822.0409,-76.2949 822.0409,-60.2076 822.0409,-46.4674"/>
<polygon fill="#000000" stroke="#000000" points="825.541,-46.072 822.0409,-36.072 818.541,-46.0721 825.541,-46.072"/>
</a>
</g>
<g id="a_edge10-label"><a xlink:href="https://example.org/relationsjest" xlink:title="rel:jest">
<text text-anchor="middle" x="841.0893" y="-58.2" font-family="Times,serif" font-size="14.00" fill="#000000">rel:jest</text>
</a>
</g>
</g>
<!-- N3&#45;&gt;N6 -->
<g id="edge28" class="edge">
<title>N3-&gt;N6</title>
<g id="a_edge28"><a xlink:href="https://example.org/relationszna" xlink:title="rel:zna">
<path fill="none" stroke="#000000" d="M837.2096,-177.9879C829.9146,-173.1401 823.3384,-167.0894 818.9553,-159.6 814.716,-152.3561 813.8974,-143.5538 814.5972,-135.2294"/>
<polygon fill="#000000" stroke="#000000" points="818.0952,-135.5093 816.1525,-125.0941 811.1762,-134.4475 818.0952,-135.5093"/>
</a>
</g>
<g id="a_edge28-label"><a xlink:href="https://example.org/relationszna" xlink:title="rel:zna">
<text text-anchor="middle" x="838.0837" y="-147" font-family="Times,serif" font-size="14.00" fill="#000000">rel:zna</text>
</a>
</g>
</g>
<!-- N3&#45;&gt;N7 -->
<g id="edge27" class="edge">
<title>N3-&gt;N7</title>
<g id="a_edge27"><a xlink:href="https://example.org/relationszna" xlink:title="rel:zna">
<path fill="none" stroke="#000000" d="M794.9036,-211.5117C767.7794,-217.0833 737.9595,-223.8987 710.9553,-231.6 679.744,-240.5011 645.6018,-252.8099 618.3008,-263.304"/>
<polygon fill="#000000" stroke="#000000" points="617.0037,-260.053 608.9455,-266.9317 619.5345,-266.5795 617.0037,-260.053"/>
</a>
</g>
<g id="a_edge27-label"><a xlink:href="https://example.org/relationszna" xlink:title="rel:zna">
<text text-anchor="middle" x="730.0837" y="-235.8" font-family="Times,serif" font-size="14.00" fill="#000000">rel:zna</text>
</a>
</g>
</g>
<!-- N4 -->
<g id="node22" class="node">
<title>N4</title>
<g id="a_node22"><a xlink:href="https://wiedzmin.fandom.com/wiki/Lambert" xlink:title="Bard">
<polygon fill="#ffff00" stroke="#ffff00" points="620.0409,-124.8 566.0409,-124.8 566.0409,-88.8 620.0409,-88.8 620.0409,-124.8"/>
<text text-anchor="middle" x="593.0409" y="-102.6" font-family="Times,serif" font-size="14.00" fill="#000000">Bard</text>
</a>
</g>
</g>
<!-- N3&#45;&gt;N4 -->
<g id="edge30" class="edge">
<title>N3-&gt;N4</title>
<g id="a_edge30"><a xlink:href="https://example.org/relationszawód" xlink:title="rel:zawód">
<path fill="none" stroke="#000000" d="M808.9831,-179.0586C760.0437,-167.1861 694.615,-149.515 629.8661,-124.7951"/>
<polygon fill="#000000" stroke="#000000" points="630.909,-121.4457 620.3199,-121.0966 628.3801,-127.973 630.909,-121.4457"/>
</a>
</g>
<g id="a_edge30-label"><a xlink:href="https://example.org/relationszawód" xlink:title="rel:zawód">
<text text-anchor="middle" x="762.9673" y="-147" font-family="Times,serif" font-size="14.00" fill="#000000">rel:zawód</text>
</a>
</g>
</g>
<!-- N5 -->
<g id="node25" class="node">
<title>N5</title>
<g id="a_node25"><a xlink:href="https://wiedzmin.fandom.com/wiki/Wiedzmin" xlink:title="Mistrz">
<polygon fill="#ffff00" stroke="#ffff00" points="1078.0409,-124.8 1024.0409,-124.8 1024.0409,-88.8 1078.0409,-88.8 1078.0409,-124.8"/>
<text text-anchor="middle" x="1051.0409" y="-102.6" font-family="Times,serif" font-size="14.00" fill="#000000">Mistrz</text>
</a>
</g>
</g>
<!-- N3&#45;&gt;N5 -->
<g id="edge29" class="edge">
<title>N3-&gt;N5</title>
<g id="a_edge29"><a xlink:href="https://example.org/relationstytuł" xlink:title="rel:tytuł">
<path fill="none" stroke="#000000" d="M916.6345,-177.8434C945.0614,-162.8177 985.7103,-141.3319 1014.8507,-125.9291"/>
<polygon fill="#000000" stroke="#000000" points="1016.6721,-128.9253 1023.8775,-121.1578 1013.4009,-122.7366 1016.6721,-128.9253"/>
</a>
</g>
<g id="a_edge29-label"><a xlink:href="https://example.org/relationstytuł" xlink:title="rel:tytuł">
<text text-anchor="middle" x="1007.34" y="-147" font-family="Times,serif" font-size="14.00" fill="#000000">rel:tytuł</text>
</a>
</g>
</g>
<!-- N7&#45;&gt;N19 -->
<g id="edge17" class="edge">
<title>N7-&gt;N19</title>
<g id="a_edge17"><a xlink:href="https://example.org/relationsucieka" xlink:title="rel:ucieka">
<path fill="none" stroke="#000000" d="M538.2553,-302.2078C527.0034,-311.807 517.9031,-324.3078 523.8501,-337.2 525.6197,-341.0362 528.0221,-344.6149 530.7882,-347.9116"/>
<polygon fill="#000000" stroke="#000000" points="528.2901,-350.363 537.7765,-355.081 533.3027,-345.477 528.2901,-350.363"/>
</a>
</g>
<g id="a_edge17-label"><a xlink:href="https://example.org/relationsucieka" xlink:title="rel:ucieka">
<text text-anchor="middle" x="551.6363" y="-324.6" font-family="Times,serif" font-size="14.00" fill="#000000">rel:ucieka</text>
</a>
</g>
</g>
<!-- N7&#45;&gt;N20 -->
<g id="edge15" class="edge">
<title>N7-&gt;N20</title>
<g id="a_edge15"><a xlink:href="https://example.org/relationszna" xlink:title="rel:zna">
<path fill="none" stroke="#000000" d="M441.5617,-271.7033C391.4015,-265.4891 339.9994,-257.406 316.9553,-248.4 299.7153,-241.6623 282.5398,-230.4181 268.8069,-220.0335"/>
<polygon fill="#000000" stroke="#000000" points="270.7669,-217.1233 260.7313,-213.7267 266.4584,-222.6403 270.7669,-217.1233"/>
</a>
</g>
<g id="a_edge15-label"><a xlink:href="https://example.org/relationszna" xlink:title="rel:zna">
<text text-anchor="middle" x="336.0837" y="-235.8" font-family="Times,serif" font-size="14.00" fill="#000000">rel:zna</text>
</a>
</g>
</g>
<!-- N7&#45;&gt;N20 -->
<g id="edge16" class="edge">
<title>N7-&gt;N20</title>
<g id="a_edge16"><a xlink:href="https://example.org/relationscórka" xlink:title="rel:córka">
<path fill="none" stroke="#000000" d="M448.1881,-270.9405C423.8685,-265.7156 398.8998,-258.4639 376.6341,-248.4 365.5539,-243.3918 365.8135,-237.2397 355.0409,-231.6 343.6684,-225.6462 331.1408,-220.4783 318.6653,-216.0616"/>
<polygon fill="#000000" stroke="#000000" points="319.7498,-212.7336 309.1554,-212.83 317.4975,-219.3614 319.7498,-212.7336"/>
</a>
</g>
<g id="a_edge16-label"><a xlink:href="https://example.org/relationscórka" xlink:title="rel:córka">
<text text-anchor="middle" x="404.2443" y="-235.8" font-family="Times,serif" font-size="14.00" fill="#000000">rel:córka</text>
</a>
</g>
</g>
<!-- N7&#45;&gt;N6 -->
<g id="edge13" class="edge">
<title>N7-&gt;N6</title>
<g id="a_edge13"><a xlink:href="https://example.org/relationszna" xlink:title="rel:zna">
<path fill="none" stroke="#000000" d="M562.2748,-266.2098C558.6092,-243.2547 556.0251,-203.6337 574.9553,-177.6 592.1038,-154.0168 656.1379,-136.0607 714.7178,-124.1325"/>
<polygon fill="#000000" stroke="#000000" points="715.6948,-127.5068 724.8197,-122.1229 714.3289,-120.6413 715.6948,-127.5068"/>
</a>
</g>
<g id="a_edge13-label"><a xlink:href="https://example.org/relationszna" xlink:title="rel:zna">
<text text-anchor="middle" x="594.0837" y="-191.4" font-family="Times,serif" font-size="14.00" fill="#000000">rel:zna</text>
</a>
</g>
</g>
<!-- N7&#45;&gt;N3 -->
<g id="edge14" class="edge">
<title>N7-&gt;N3</title>
<g id="a_edge14"><a xlink:href="https://example.org/relationszna" xlink:title="rel:zna">
<path fill="none" stroke="#000000" d="M663.4841,-269.3716C692.5778,-263.8871 724.3526,-256.8983 753.0409,-248.4 781.0836,-240.093 811.4168,-227.9642 835.7239,-217.4256"/>
<polygon fill="#000000" stroke="#000000" points="837.3154,-220.5494 845.0657,-213.3255 834.5022,-214.1396 837.3154,-220.5494"/>
</a>
</g>
<g id="a_edge14-label"><a xlink:href="https://example.org/relationszna" xlink:title="rel:zna">
<text text-anchor="middle" x="820.0837" y="-235.8" font-family="Times,serif" font-size="14.00" fill="#000000">rel:zna</text>
</a>
</g>
</g>
<!-- N24 -->
<g id="node9" class="node">
<title>N24</title>
<g id="a_node9"><a xlink:href="https://wiedzmin.fandom.com/wiki/Ciri">
<ellipse fill="#c0c0c0" stroke="#c0c0c0" cx="1114.0409" cy="-106.8" rx="18" ry="18"/>
</a>
</g>
</g>
<!-- N13 -->
<g id="node10" class="node">
<title>N13</title>
<g id="a_node10"><a xlink:href="https://wiedzmin.fandom.com/wiki/Ciri">
<ellipse fill="#c0c0c0" stroke="#c0c0c0" cx="1893.0409" cy="-195.6" rx="18" ry="18"/>
</a>
</g>
</g>
<!-- N13&#45;&gt;N14 -->
<g id="edge23" class="edge">
<title>N13-&gt;N14</title>
<g id="a_edge23"><a xlink:href="http://www.w3.org/1999/02/22-rdf-syntax-ns#_5" xlink:title="rdf:_5">
<path fill="none" stroke="#000000" d="M1875.1033,-192.4396C1814.1519,-181.7005 1611.942,-146.073 1488.3602,-124.2991"/>
<polygon fill="#000000" stroke="#000000" points="1488.953,-120.8497 1478.4973,-122.5614 1487.7383,-127.7435 1488.953,-120.8497"/>
</a>
</g>
<g id="a_edge23-label"><a xlink:href="http://www.w3.org/1999/02/22-rdf-syntax-ns#_5" xlink:title="rdf:_5">
<text text-anchor="middle" x="1703.1468" y="-147" font-family="Times,serif" font-size="14.00" fill="#000000">rdf:_5</text>
</a>
</g>
</g>
<!-- N13&#45;&gt;N6 -->
<g id="edge19" class="edge">
<title>N13-&gt;N6</title>
<g id="a_edge19"><a xlink:href="http://www.w3.org/1999/02/22-rdf-syntax-ns#_1" xlink:title="rdf:_1">
<path fill="none" stroke="#000000" d="M1874.8033,-194.2147C1782.8082,-187.2092 1360.4958,-154.8365 1015.0409,-124.8 998.646,-123.3745 981.4721,-121.8368 964.4151,-120.2817"/>
<polygon fill="#000000" stroke="#000000" points="964.6697,-116.7905 954.3924,-119.3649 964.032,-123.7614 964.6697,-116.7905"/>
</a>
</g>
<g id="a_edge19-label"><a xlink:href="http://www.w3.org/1999/02/22-rdf-syntax-ns#_1" xlink:title="rdf:_1">
<text text-anchor="middle" x="1440.1468" y="-147" font-family="Times,serif" font-size="14.00" fill="#000000">rdf:_1</text>
</a>
</g>
</g>
<!-- N15 -->
<g id="node11" class="node">
<title>N15</title>
<g id="a_node11"><a xlink:href="https://wiedzmin.fandom.com/wiki/Eskel" xlink:title="&lt;https://wiedzmin.fandom.com/wiki/Eskel&gt;">
<ellipse fill="none" stroke="#000000" cx="1773.0409" cy="-106.8" rx="181.566" ry="18"/>
<text text-anchor="middle" x="1773.0409" y="-102.6" font-family="Times,serif" font-size="14.00" fill="#000000">&lt;https://wiedzmin.fandom.com/wiki/Eskel&gt;</text>
</a>
</g>
</g>
<!-- N13&#45;&gt;N15 -->
<g id="edge22" class="edge">
<title>N13-&gt;N15</title>
<g id="a_edge22"><a xlink:href="http://www.w3.org/1999/02/22-rdf-syntax-ns#_4" xlink:title="rdf:_4">
<path fill="none" stroke="#000000" d="M1878.3266,-184.7114C1860.2997,-171.3715 1829.2337,-148.3827 1805.505,-130.8234"/>
<polygon fill="#000000" stroke="#000000" points="1807.5717,-127.9987 1797.4513,-124.8636 1803.4078,-133.6256 1807.5717,-127.9987"/>
</a>
</g>
<g id="a_edge22-label"><a xlink:href="http://www.w3.org/1999/02/22-rdf-syntax-ns#_4" xlink:title="rdf:_4">
<text text-anchor="middle" x="1860.1468" y="-147" font-family="Times,serif" font-size="14.00" fill="#000000">rdf:_4</text>
</a>
</g>
</g>
<!-- N18 -->
<g id="node17" class="node">
<title>N18</title>
<g id="a_node17"><a xlink:href="http://www.w3.org/1999/02/22-rdf-syntax-ns#Bag" xlink:title="rdf:Bag">
<ellipse fill="none" stroke="#000000" cx="2013.0409" cy="-106.8" rx="40.5673" ry="18"/>
<text text-anchor="middle" x="2013.0409" y="-102.6" font-family="Times,serif" font-size="14.00" fill="#000000">rdf:Bag</text>
</a>
</g>
</g>
<!-- N13&#45;&gt;N18 -->
<g id="edge18" class="edge">
<title>N13-&gt;N18</title>
<g id="a_edge18"><a xlink:href="http://www.w3.org/1999/02/22-rdf-syntax-ns#type" xlink:title="a">
<path fill="none" stroke="#000000" d="M1907.7553,-184.7114C1926.6779,-170.7086 1959.9676,-146.0742 1984.0572,-128.248"/>
<polygon fill="#000000" stroke="#000000" points="1986.1992,-131.017 1992.1557,-122.2551 1982.0353,-125.3901 1986.1992,-131.017"/>
</a>
</g>
<g id="a_edge18-label"><a xlink:href="http://www.w3.org/1999/02/22-rdf-syntax-ns#type" xlink:title="a">
<text text-anchor="middle" x="1966.1482" y="-147" font-family="Times,serif" font-size="14.00" fill="#000000">a</text>
</a>
</g>
</g>
<!-- N17 -->
<g id="node20" class="node">
<title>N17</title>
<g id="a_node20"><a xlink:href="https://wiedzmin.fandom.com/wiki/Vesemir" xlink:title="&lt;https://wiedzmin.fandom.com/wiki/Vesemir&gt;">
<ellipse fill="none" stroke="#000000" cx="2265.0409" cy="-106.8" rx="193.08" ry="18"/>
<text text-anchor="middle" x="2265.0409" y="-102.6" font-family="Times,serif" font-size="14.00" fill="#000000">&lt;https://wiedzmin.fandom.com/wiki/Vesemir&gt;</text>
</a>
</g>
</g>
<!-- N13&#45;&gt;N17 -->
<g id="edge20" class="edge">
<title>N13-&gt;N17</title>
<g id="a_edge20"><a xlink:href="http://www.w3.org/1999/02/22-rdf-syntax-ns#_2" xlink:title="rdf:_2">
<path fill="none" stroke="#000000" d="M1910.9833,-191.317C1959.5949,-179.7129 2096.1271,-147.1214 2184.7431,-125.9679"/>
<polygon fill="#000000" stroke="#000000" points="2185.5858,-129.3651 2194.4998,-123.6388 2183.9604,-122.5564 2185.5858,-129.3651"/>
</a>
</g>
<g id="a_edge20-label"><a xlink:href="http://www.w3.org/1999/02/22-rdf-syntax-ns#_2" xlink:title="rdf:_2">
<text text-anchor="middle" x="2129.1468" y="-147" font-family="Times,serif" font-size="14.00" fill="#000000">rdf:_2</text>
</a>
</g>
</g>
<!-- N16 -->
<g id="node21" class="node">
<title>N16</title>
<g id="a_node21"><a xlink:href="https://wiedzmin.fandom.com/wiki/Lambert" xlink:title="&lt;https://wiedzmin.fandom.com/wiki/Lambert&gt;">
<ellipse fill="none" stroke="#000000" cx="2669.0409" cy="-106.8" rx="193.0819" ry="18"/>
<text text-anchor="middle" x="2669.0409" y="-102.6" font-family="Times,serif" font-size="14.00" fill="#000000">&lt;https://wiedzmin.fandom.com/wiki/Lambert&gt;</text>
</a>
</g>
</g>
<!-- N13&#45;&gt;N16 -->
<g id="edge21" class="edge">
<title>N13-&gt;N16</title>
<g id="a_edge21"><a xlink:href="http://www.w3.org/1999/02/22-rdf-syntax-ns#_3" xlink:title="rdf:_3">
<path fill="none" stroke="#000000" d="M1911.0804,-193.5357C1994.008,-184.046 2342.8583,-144.1261 2537.0828,-121.9004"/>
<polygon fill="#000000" stroke="#000000" points="2537.534,-125.3717 2547.0712,-120.7574 2536.7381,-118.417 2537.534,-125.3717"/>
</a>
</g>
<g id="a_edge21-label"><a xlink:href="http://www.w3.org/1999/02/22-rdf-syntax-ns#_3" xlink:title="rdf:_3">
<text text-anchor="middle" x="2367.1468" y="-147" font-family="Times,serif" font-size="14.00" fill="#000000">rdf:_3</text>
</a>
</g>
</g>
<!-- N9 -->
<g id="node18" class="node">
<title>N9</title>
<g id="a_node18"><a xlink:href="http://www.w3.org/1999/02/22-rdf-syntax-ns#Bag" xlink:title="01.01.1135^^xsd:date">
<polygon fill="#ffff00" stroke="#ffff00" points="262.3253,-36 123.7566,-36 123.7566,0 262.3253,0 262.3253,-36"/>
<text text-anchor="middle" x="193.0409" y="-13.8" font-family="Times,serif" font-size="14.00" fill="#000000">01.01.1135^^xsd:date</text>
</a>
</g>
</g>
<!-- N8&#45;&gt;N9 -->
<g id="edge26" class="edge">
<title>N8-&gt;N9</title>
<g id="a_edge26"><a xlink:href="https://example.org/relationspowstał" xlink:title="rel:powstał">
<path fill="none" stroke="#000000" d="M193.0409,-88.4006C193.0409,-76.2949 193.0409,-60.2076 193.0409,-46.4674"/>
<polygon fill="#000000" stroke="#000000" points="196.541,-46.072 193.0409,-36.072 189.541,-46.0721 196.541,-46.072"/>
</a>
</g>
<g id="a_edge26-label"><a xlink:href="https://example.org/relationspowstał" xlink:title="rel:powstał">
<text text-anchor="middle" x="226.2776" y="-58.2" font-family="Times,serif" font-size="14.00" fill="#000000">rel:powstał</text>
</a>
</g>
</g>
<!-- N11&#45;&gt;N24 -->
<g id="edge3" class="edge">
<title>N11-&gt;N24</title>
<g id="a_edge3"><a xlink:href="http://www.w3.org/1999/02/22-rdf-syntax-ns#rest" xlink:title="rdf:rest">
<path fill="none" stroke="#000000" d="M1114.0409,-177.2006C1114.0409,-165.0949 1114.0409,-149.0076 1114.0409,-135.2674"/>
<polygon fill="#000000" stroke="#000000" points="1117.541,-134.872 1114.0409,-124.872 1110.541,-134.8721 1117.541,-134.872"/>
</a>
</g>
<g id="a_edge3-label"><a xlink:href="http://www.w3.org/1999/02/22-rdf-syntax-ns#rest" xlink:title="rdf:rest">
<text text-anchor="middle" x="1134.252" y="-147" font-family="Times,serif" font-size="14.00" fill="#000000">rdf:rest</text>
</a>
</g>
</g>
<!-- N11&#45;&gt;N5 -->
<g id="edge2" class="edge">
<title>N11-&gt;N5</title>
<g id="a_edge2"><a xlink:href="http://www.w3.org/1999/02/22-rdf-syntax-ns#first" xlink:title="rdf:first">
<path fill="none" stroke="#000000" d="M1098.086,-186.8316C1087.9248,-180.4926 1075.2246,-171.0479 1067.2821,-159.6 1062.2295,-152.3173 1058.7083,-143.4113 1056.2713,-135.0032"/>
<polygon fill="#000000" stroke="#000000" points="1059.6258,-133.9901 1053.8063,-125.1367 1052.8346,-135.6869 1059.6258,-133.9901"/>
</a>
</g>
<g id="a_edge2-label"><a xlink:href="http://www.w3.org/1999/02/22-rdf-syntax-ns#first" xlink:title="rdf:first">
<text text-anchor="middle" x="1088.4203" y="-147" font-family="Times,serif" font-size="14.00" fill="#000000">rdf:first</text>
</a>
</g>
</g>
<!-- N23 -->
<g id="node14" class="node">
<title>N23</title>
<g id="a_node14"><a xlink:href="https://wiedzmin.fandom.com/wiki/Kaer_Morhen" xlink:title="&lt;https://wiedzmin.fandom.com/wiki/Kaer_Morhen&gt;">
<ellipse fill="none" stroke="#000000" cx="1893.0409" cy="-284.4" rx="214.4761" ry="18"/>
<text text-anchor="middle" x="1893.0409" y="-280.2" font-family="Times,serif" font-size="14.00" fill="#000000">&lt;https://wiedzmin.fandom.com/wiki/Kaer_Morhen&gt;</text>
</a>
</g>
</g>
<!-- N23&#45;&gt;N13 -->
<g id="edge4" class="edge">
<title>N23-&gt;N13</title>
<g id="a_edge4"><a xlink:href="https://example.org/relationszamieszkują" xlink:title="rel:zamieszkują">
<path fill="none" stroke="#000000" d="M1893.0409,-266.0006C1893.0409,-253.8949 1893.0409,-237.8076 1893.0409,-224.0674"/>
<polygon fill="#000000" stroke="#000000" points="1896.541,-223.672 1893.0409,-213.672 1889.541,-223.6721 1896.541,-223.672"/>
</a>
</g>
<g id="a_edge4-label"><a xlink:href="https://example.org/relationszamieszkują" xlink:title="rel:zamieszkują">
<text text-anchor="middle" x="1937.9368" y="-235.8" font-family="Times,serif" font-size="14.00" fill="#000000">rel:zamieszkują</text>
</a>
</g>
</g>
<!-- N21 -->
<g id="node15" class="node">
<title>N21</title>
<g id="a_node15"><a xlink:href="https://wiedzmin.fandom.com/wiki/Tytuły" xlink:title="&lt;https://wiedzmin.fandom.com/wiki/Tytuły&gt;">
<ellipse fill="none" stroke="#000000" cx="1146.0409" cy="-373.2" rx="189.0531" ry="18"/>
<text text-anchor="middle" x="1146.0409" y="-369" font-family="Times,serif" font-size="14.00" fill="#000000">&lt;https://wiedzmin.fandom.com/wiki/Tytuły&gt;</text>
</a>
</g>
</g>
<!-- N21&#45;&gt;N10 -->
<g id="edge12" class="edge">
<title>N21-&gt;N10</title>
<g id="a_edge12"><a xlink:href="https://example.org/relationssą" xlink:title="rel:są">
<path fill="none" stroke="#000000" d="M1146.0409,-354.8006C1146.0409,-342.6949 1146.0409,-326.6076 1146.0409,-312.8674"/>
<polygon fill="#000000" stroke="#000000" points="1149.541,-312.472 1146.0409,-302.472 1142.541,-312.4721 1149.541,-312.472"/>
</a>
</g>
<g id="a_edge12-label"><a xlink:href="https://example.org/relationssą" xlink:title="rel:są">
<text text-anchor="middle" x="1162.1717" y="-324.6" font-family="Times,serif" font-size="14.00" fill="#000000">rel:są</text>
</a>
</g>
</g>
<!-- N0 -->
<g id="node23" class="node">
<title>N0</title>
<g id="a_node23"><a xlink:href="https://wiedzmin.fandom.com/wiki/Lambert">
<ellipse fill="#c0c0c0" stroke="#c0c0c0" cx="512.0409" cy="-195.6" rx="18" ry="18"/>
</a>
</g>
</g>
<!-- N0&#45;&gt;N1 -->
<g id="edge32" class="edge">
<title>N0-&gt;N1</title>
<g id="a_edge32"><a xlink:href="http://www.w3.org/1999/02/22-rdf-syntax-ns#rest" xlink:title="rdf:rest">
<path fill="none" stroke="#000000" d="M511.8234,-177.2859C511.7568,-171.6166 511.6839,-165.35 511.6187,-159.6 511.5287,-151.6594 511.4335,-143.0471 511.3468,-135.1268"/>
<polygon fill="#000000" stroke="#000000" points="514.8441,-134.8447 511.2353,-124.8834 507.8445,-134.921 514.8441,-134.8447"/>
</a>
</g>
<g id="a_edge32-label"><a xlink:href="http://www.w3.org/1999/02/22-rdf-syntax-ns#rest" xlink:title="rdf:rest">
<text text-anchor="middle" x="532.252" y="-147" font-family="Times,serif" font-size="14.00" fill="#000000">rdf:rest</text>
</a>
</g>
</g>
<!-- N0&#45;&gt;N2 -->
<g id="edge31" class="edge">
<title>N0-&gt;N2</title>
<g id="a_edge31"><a xlink:href="http://www.w3.org/1999/02/22-rdf-syntax-ns#first" xlink:title="rdf:first">
<path fill="none" stroke="#000000" d="M496.6457,-185.7405C486.9646,-179.0821 474.5896,-169.6916 465.2821,-159.6 458.1354,-151.8511 451.5118,-142.4431 446.0323,-133.7273"/>
<polygon fill="#000000" stroke="#000000" points="448.9255,-131.7474 440.7622,-124.9937 442.9321,-135.3639 448.9255,-131.7474"/>
</a>
</g>
<g id="a_edge31-label"><a xlink:href="http://www.w3.org/1999/02/22-rdf-syntax-ns#first" xlink:title="rdf:first">
<text text-anchor="middle" x="487.4203" y="-147" font-family="Times,serif" font-size="14.00" fill="#000000">rdf:first</text>
</a>
</g>
</g>
</g>
</svg>